<?xml version="1.0" encoding="UTF-8" standalone="no"?>
<!-- Created with Inkscape (http://www.inkscape.org/) -->

<svg
   width="1000"
   height="181.045"
   viewBox="0 0 264.58334 47.90149"
   version="1.1"
   id="svg5"
   inkscape:version="1.2.2 (732a01da63, 2022-12-09)"
   sodipodi:docname="CINEMARK.svg"
   xml:space="preserve"
   xmlns:inkscape="http://www.inkscape.org/namespaces/inkscape"
   xmlns:sodipodi="http://sodipodi.sourceforge.net/DTD/sodipodi-0.dtd"
   xmlns="http://www.w3.org/2000/svg"
   xmlns:svg="http://www.w3.org/2000/svg"
   xmlns:rdf="http://www.w3.org/1999/02/22-rdf-syntax-ns#"
   xmlns:cc="http://creativecommons.org/ns#"
   xmlns:dc="http://purl.org/dc/elements/1.1/"><title
     id="title6114">Cinemark Logo</title><sodipodi:namedview
     id="namedview7"
     pagecolor="#ffffff"
     bordercolor="#666666"
     borderopacity="1.0"
     inkscape:showpageshadow="2"
     inkscape:pageopacity="0.0"
     inkscape:pagecheckerboard="0"
     inkscape:deskcolor="#d1d1d1"
     inkscape:document-units="px"
     showgrid="false"
     inkscape:zoom="0.61944869"
     inkscape:cx="408.42769"
     inkscape:cy="232.46477"
     inkscape:window-width="1366"
     inkscape:window-height="705"
     inkscape:window-x="-8"
     inkscape:window-y="-8"
     inkscape:window-maximized="1"
     inkscape:current-layer="layer1"
     showguides="true" /><defs
     id="defs2" /><g
     inkscape:label="Capa 1"
     inkscape:groupmode="layer"
     id="layer1"
     transform="translate(310.3944,-249.79625)"><path
       id="circle1197"
       style="color:#000000;opacity:1;fill:#dd0000;fill-opacity:1;fill-rule:evenodd;stroke:none;stroke-width:1;-inkscape-stroke:none;paint-order:fill markers stroke"
       d="m -286.44369,256.41088 c -9.53911,0 -17.33612,7.79704 -17.33612,17.33612 0,9.53908 7.79701,17.33612 17.33612,17.33612 6.02296,0 11.35048,-3.10934 14.4603,-7.80201 l -4.711,-3.6636 c -1.98042,3.30094 -5.59109,5.49352 -9.7493,5.49352 -6.31196,0 -11.36404,-5.05209 -11.36404,-11.36403 0,-6.31196 5.05208,-11.36705 11.36404,-11.36705 4.15821,0 7.76888,2.19401 9.7493,5.4958 l 4.711,-3.66362 c -3.10985,-4.69248 -8.43747,-7.80125 -14.4603,-7.80125 z m 20.16301,1.08049 v 33.0199 h 5.77871 v -33.0199 z m 13.29178,0 v 33.0199 h 5.7787 v -22.52191 c 5.03167,7.43885 15.23533,22.52191 15.23533,22.52191 h 5.65305 v -33.0199 h -5.77871 v 22.52191 c -5.03288,-7.43881 -15.23457,-22.52191 -15.23457,-22.52191 z m 34.21476,0 v 33.0199 h 21.10131 v -5.77871 h -15.32261 v -10.37383 h 13.67326 v -5.77871 h -13.67326 v -5.30994 h 15.70936 v -5.77871 z m 27.97556,0 v 33.0199 h 5.77871 v -22.78301 l 8.91259,12.24741 8.91186,-12.24741 v 22.78301 h 5.7787 v -33.0199 h -5.47396 c 0,0 -5.1954,7.13862 -9.2166,12.6635 -4.02133,-5.52509 -9.21733,-12.6635 -9.21733,-12.6635 z m 45.97682,0 -12.64693,33.0199 h 6.18879 l 3.4469,-9.00065 h 11.36705 l 3.44691,9.00065 h 6.18879 l -12.64695,-33.0199 z m 21.73186,0 v 33.0199 h 5.7787 v -16.30905 h 2.92246 l 11.70865,16.30829 h 7.115788 l -11.716168,-16.3143 c 0.97078,-0.0304 2.53538,-0.21972 4.27609,-1.22271 1.96617,-1.13288 3.879558,-3.72605 3.879558,-7.12708 0,-3.40104 -1.913388,-5.99042 -3.879558,-7.1233 -1.96615,-1.13288 -3.70941,-1.23175 -4.62372,-1.23175 z m 31.603808,0 v 33.0199 h 5.778706 v -12.25718 l 5.683888,-5.33853 12.503978,17.59571 h 7.090201 l -15.342915,-21.58814 12.172158,-11.43176 h -8.440078 l -13.667232,12.8343 v -12.8343 z m 29.622635,0 v 1.04664 h 1.335578 v 3.19258 h 1.309981 v -3.19258 h 1.335578 v -1.04664 z m 4.669617,0 v 4.23922 h 1.072979 v -3.2332 l 0.826921,3.2332 h 0.969134 l 0.829935,-3.2332 v 3.2332 h 1.069223 v -4.23922 h -1.717064 l -0.66214,2.57935 -0.665153,-2.57935 z m -60.11736,5.77871 h 9.6831 c 1.87052,0 2.71714,1.00293 2.72458,2.57634 0.007,1.57342 -0.85406,2.57709 -2.72458,2.57709 h -9.6831 z m -24.83866,3.3995 3.471,9.06234 h -6.94122 z" /></g><metadata
     id="metadata6112"><rdf:RDF><cc:Work
         rdf:about=""><dc:title>Cinemark Logo</dc:title><dc:subject><rdf:Bag><rdf:li>Cinemark</rdf:li><rdf:li>Logo</rdf:li><rdf:li>Logotipo</rdf:li><rdf:li>PNG</rdf:li><rdf:li>Transparent</rdf:li><rdf:li>SVG</rdf:li><rdf:li>Vector</rdf:li><rdf:li>Theatre</rdf:li><rdf:li>Cine</rdf:li></rdf:Bag></dc:subject></cc:Work></rdf:RDF></metadata></svg>
