<svg width="154" height="25" viewBox="0 0 154 25" fill="none" xmlns="http://www.w3.org/2000/svg">
<path d="M0.809082 13.6823H20.9748L16.6544 7.74167L5.08634 7.59045L0.809082 13.6823Z" fill="#DDB6FF"/>
<path d="M14.6671 13.1438L10.9515 23.2537L7.40869 13.1438H14.6671Z" fill="#D49CFF"/>
<path d="M21.2775 11.9658L18.1452 7.91534C17.5187 7.10526 16.5358 6.63 15.5205 6.63L6.35034 6.63C5.32423 6.63 4.34133 7.11606 3.72566 7.91534L0.593324 11.9658C-0.29237 13.0999 -0.173558 14.7093 0.863353 15.7138L8.62938 23.1882C9.27745 23.8146 10.1091 24.1171 10.93 24.1171C11.7509 24.1171 12.5934 23.8038 13.2307 23.1882L20.9967 15.7138C22.0336 14.7201 22.1524 13.1107 21.2667 11.9658H21.2775ZM5.0002 8.90905C5.0002 8.90905 5.065 8.84424 5.09741 8.80104L7.70049 13.1431L10.876 8.25018L14.2568 13.1431L16.9355 9.01706L19.9814 12.9487C20.0246 13.0027 20.0462 13.0783 20.0786 13.1323H14.2784L11.2217 22.4213C11.038 22.4537 10.8652 22.4537 10.6924 22.4321L7.68968 13.1323H1.77065C1.80305 13.0675 1.82466 13.0027 1.86786 12.9487L5.0002 8.89825V8.90905Z" fill="#C375FF"/>
<path d="M32.6306 24.041C31.1207 24.041 29.7842 23.6941 28.6212 23.0004C27.4785 22.2862 26.5807 21.3068 25.9278 20.0621C25.2953 18.8175 24.979 17.4096 24.979 15.8384C24.979 14.2877 25.3055 12.89 25.9584 11.6453C26.6114 10.4007 27.5193 9.43146 28.6824 8.73771C29.8658 8.02356 31.1921 7.66649 32.6612 7.66649C34.1916 7.66649 35.4464 8.01336 36.4258 8.70711C37.4257 9.40086 38.1908 10.3395 38.7213 11.5229C38.7621 11.6045 38.7825 11.6657 38.7825 11.7065C38.7825 11.8494 38.7009 11.9514 38.5377 12.0126L36.3034 12.9614C36.2626 12.9818 36.2014 12.992 36.1198 12.992C35.9769 12.992 35.8749 12.9206 35.8137 12.7778C35.0792 11.4923 34.0283 10.8496 32.6612 10.8496C31.8451 10.8496 31.1207 11.0638 30.4882 11.4923C29.8556 11.9208 29.3659 12.5125 29.0191 13.2675C28.6722 14.0224 28.4988 14.8794 28.4988 15.8384C28.4988 16.8382 28.6722 17.7258 29.0191 18.5012C29.3659 19.2562 29.8556 19.8479 30.4882 20.2764C31.1207 20.6845 31.8349 20.8885 32.6306 20.8885C34.1202 20.8885 35.2628 20.2152 36.0586 18.8685C36.181 18.6644 36.3544 18.6134 36.5789 18.7154L38.7213 19.6642C38.8234 19.7051 38.8948 19.7663 38.9356 19.8479C38.9764 19.9091 38.9764 19.9805 38.9356 20.0621C38.4051 21.266 37.6093 22.2352 36.5483 22.9697C35.4872 23.6839 34.1814 24.041 32.6306 24.041Z" fill="black"/>
<path d="M43.3564 24.041C43.2952 24.041 43.2034 24.0104 43.0809 23.9492C41.7138 23.133 40.7752 22.2556 40.2651 21.317C39.755 20.358 39.5 19.1031 39.5 17.5524V1.36154C39.5 1.25952 39.5306 1.1779 39.5918 1.11669C39.6734 1.03507 39.7652 0.994263 39.8672 0.994263H42.5606C42.6626 0.994263 42.7443 1.03507 42.8055 1.11669C42.8871 1.1779 42.9279 1.25952 42.9279 1.36154V17.2157C42.9279 17.9299 42.9789 18.5012 43.0809 18.9297C43.2034 19.3582 43.4074 19.7459 43.6931 20.0927C43.9991 20.4192 44.448 20.7967 45.0397 21.2252C45.1418 21.3272 45.1928 21.419 45.1928 21.5006C45.1928 21.5618 45.1622 21.6435 45.101 21.7455L43.7543 23.7043C43.6318 23.8879 43.5298 24.0002 43.4482 24.041H43.3564Z" fill="black"/>
<path d="M51.2357 24.0104C49.4401 24.0104 48.0322 23.4697 47.012 22.3882C46.0122 21.3068 45.5123 19.7969 45.5123 17.8585V8.43165C45.5123 8.32963 45.5429 8.24801 45.6041 8.1868C45.6857 8.10518 45.7776 8.06437 45.8796 8.06437H48.573C48.675 8.06437 48.7566 8.10518 48.8178 8.1868C48.8994 8.24801 48.9402 8.32963 48.9402 8.43165V17.4912C48.9402 18.6134 49.1851 19.4602 49.6748 20.0315C50.1645 20.6028 50.8889 20.8885 51.8479 20.8885C52.6232 20.8885 53.3476 20.6845 54.0209 20.2764C54.7147 19.8479 55.337 19.2664 55.8879 18.5318V8.43165C55.8879 8.32963 55.9185 8.24801 55.9797 8.1868C56.0614 8.10518 56.1532 8.06437 56.2552 8.06437H58.9486C59.0506 8.06437 59.1322 8.10518 59.1934 8.1868C59.275 8.24801 59.3159 8.32963 59.3159 8.43165V23.3064C59.3159 23.4084 59.275 23.5003 59.1934 23.5819C59.1322 23.6431 59.0506 23.6737 58.9486 23.6737H56.4388C56.3368 23.6737 56.245 23.6431 56.1634 23.5819C56.1022 23.5003 56.0716 23.4084 56.0716 23.3064V21.4394C55.4798 22.2352 54.7759 22.8677 53.9597 23.337C53.1639 23.7859 52.256 24.0104 51.2357 24.0104Z" fill="black"/>
<path d="M68.401 24.041C67.3196 24.041 66.4014 23.8471 65.6464 23.4595C64.8915 23.0718 64.2997 22.5515 63.8712 21.8985V23.3064C63.8712 23.4084 63.8304 23.5003 63.7488 23.5819C63.6876 23.6431 63.606 23.6737 63.504 23.6737H60.9942C60.8922 23.6737 60.8004 23.6431 60.7188 23.5819C60.6576 23.5003 60.627 23.4084 60.627 23.3064V1.36154C60.627 1.25952 60.6576 1.1779 60.7188 1.11669C60.8004 1.03507 60.8922 0.994263 60.9942 0.994263H63.6876C63.7896 0.994263 63.8712 1.03507 63.9325 1.11669C64.0141 1.1779 64.0549 1.25952 64.0549 1.36154V9.65591C64.5854 9.04378 65.2383 8.56428 66.0137 8.2174C66.7891 7.85012 67.6359 7.66649 68.554 7.66649C69.8395 7.66649 71.0026 8.00316 72.0432 8.6765C73.1042 9.32944 73.9408 10.2782 74.5529 11.5229C75.1651 12.7676 75.4711 14.2163 75.4711 15.869C75.4711 17.4198 75.1651 18.8175 74.5529 20.0621C73.9408 21.3068 73.094 22.2862 72.0126 23.0004C70.9516 23.6941 69.7477 24.041 68.401 24.041ZM67.9419 20.8885C68.7173 20.8885 69.411 20.6845 70.0232 20.2764C70.6353 19.8683 71.1148 19.2868 71.4617 18.5318C71.8085 17.7768 71.982 16.8893 71.982 15.869C71.982 14.3591 71.6147 13.1451 70.8801 12.2269C70.1456 11.3087 69.1866 10.8496 68.0031 10.8496C67.1666 10.8496 66.4014 11.0536 65.7076 11.4617C65.0343 11.8698 64.4834 12.4207 64.0549 13.1144V17.0627C64.0549 18.2257 64.4222 19.1541 65.1567 19.8479C65.8913 20.5416 66.8197 20.8885 67.9419 20.8885Z" fill="black"/>
<path d="M84.3926 24.041C82.8827 24.041 81.5258 23.7043 80.3219 23.031C79.1385 22.3372 78.2101 21.368 77.5367 20.1233C76.8838 18.8583 76.5573 17.4198 76.5573 15.8078C76.5573 14.2979 76.8736 12.9308 77.5061 11.7065C78.1591 10.4619 79.0569 9.48247 80.1995 8.76832C81.3422 8.05417 82.648 7.69709 84.1171 7.69709C85.4842 7.69709 86.6881 8.01336 87.7287 8.64589C88.7897 9.27843 89.6059 10.166 90.1772 11.3087C90.769 12.4309 91.0648 13.7062 91.0648 15.1345C91.0648 15.3793 91.0444 15.7874 91.0036 16.3587C90.9628 16.5832 90.8302 16.6954 90.6057 16.6954H79.9853C80.1281 18.0625 80.6076 19.1235 81.4238 19.8785C82.2399 20.6334 83.25 21.0109 84.4538 21.0109C85.9841 21.0109 87.1574 20.3988 87.9736 19.1745C88.096 18.9501 88.2592 18.8991 88.4633 19.0215L90.5445 20.0621C90.769 20.1846 90.8404 20.3172 90.7588 20.46C90.1874 21.5618 89.3611 22.4392 88.2796 23.0922C87.1982 23.7247 85.9025 24.041 84.3926 24.041ZM87.7287 14.0632C87.6063 12.9614 87.2084 12.1146 86.5351 11.5229C85.8821 10.9108 85.066 10.6047 84.0865 10.6047C83.0867 10.6047 82.2297 10.921 81.5156 11.5535C80.8014 12.1656 80.3219 13.0022 80.0771 14.0632H87.7287Z" fill="black"/>
<path d="M99.7117 23.844C99.7117 23.9256 99.6811 23.997 99.6199 24.0582C99.5791 24.0991 99.5179 24.1195 99.4363 24.1195H97.9978C97.9161 24.1195 97.8447 24.0991 97.7835 24.0582C97.7427 23.997 97.7223 23.9256 97.7223 23.844V8.908C97.7223 8.82639 97.7427 8.76517 97.7835 8.72437C97.8447 8.66315 97.9161 8.63255 97.9978 8.63255H99.4363C99.5179 8.63255 99.5791 8.66315 99.6199 8.72437C99.6811 8.76517 99.7117 8.82639 99.7117 8.908V23.844ZM98.7017 4.71491C98.2528 4.71491 97.8855 4.58228 97.5999 4.31702C97.3142 4.03136 97.1714 3.66408 97.1714 3.21519C97.1714 2.7867 97.3142 2.42962 97.5999 2.14396C97.8855 1.8583 98.2528 1.71547 98.7017 1.71547C99.1506 1.71547 99.5179 1.8583 99.8035 2.14396C100.089 2.40922 100.232 2.76629 100.232 3.21519C100.232 3.66408 100.089 4.03136 99.8035 4.31702C99.5179 4.58228 99.1506 4.71491 98.7017 4.71491Z" fill="black"/>
<path d="M105.908 23.844C105.908 23.9256 105.877 23.997 105.816 24.0582C105.775 24.0991 105.714 24.1195 105.632 24.1195H104.194C104.112 24.1195 104.041 24.0991 103.98 24.0582C103.939 23.997 103.918 23.9256 103.918 23.844V10.4995H100.827C100.745 10.4995 100.674 10.4791 100.613 10.4383C100.572 10.3771 100.552 10.3057 100.552 10.2241V8.908C100.552 8.82639 100.572 8.76517 100.613 8.72437C100.674 8.66315 100.745 8.63255 100.827 8.63255H103.918V6.94919C103.918 3.70489 106.132 1.78688 110.56 1.19516L110.866 1.16455C110.988 1.16455 111.06 1.24617 111.08 1.4094L111.233 2.69488V2.75609C111.233 2.87852 111.152 2.96013 110.988 3.00094C109.642 3.18458 108.601 3.44984 107.867 3.79671C107.132 4.14359 106.622 4.58228 106.336 5.11279C106.051 5.6229 105.908 6.26564 105.908 7.04101V8.63255H110.866C110.948 8.63255 111.009 8.66315 111.05 8.72437C111.111 8.76517 111.141 8.82639 111.141 8.908V10.2241C111.141 10.3057 111.111 10.3771 111.05 10.4383C111.009 10.4791 110.948 10.4995 110.866 10.4995H105.908V23.844Z" fill="black"/>
<path d="M117.49 24.4255C116.083 24.4255 114.828 24.0786 113.726 23.3849C112.624 22.6912 111.767 21.7321 111.155 20.5079C110.563 19.2632 110.267 17.8757 110.267 16.3454C110.267 14.8355 110.573 13.4786 111.186 12.2747C111.798 11.0505 112.655 10.0915 113.756 9.39771C114.858 8.70396 116.103 8.35709 117.49 8.35709C118.898 8.35709 120.143 8.70396 121.224 9.39771C122.326 10.0915 123.173 11.0505 123.765 12.2747C124.377 13.4786 124.683 14.8457 124.683 16.376C124.683 17.8859 124.377 19.253 123.765 20.4773C123.153 21.7015 122.296 22.6707 121.194 23.3849C120.092 24.0786 118.858 24.4255 117.49 24.4255ZM117.49 22.5585C118.47 22.5585 119.347 22.3035 120.123 21.7934C120.918 21.2832 121.531 20.5691 121.959 19.6509C122.408 18.7123 122.632 17.6207 122.632 16.376C122.632 15.1517 122.408 14.0703 121.959 13.1317C121.531 12.1931 120.918 11.4688 120.123 10.9586C119.347 10.4485 118.47 10.1935 117.49 10.1935C116.491 10.1935 115.593 10.4485 114.797 10.9586C114.022 11.4483 113.41 12.1625 112.961 13.1011C112.532 14.0397 112.318 15.1211 112.318 16.3454C112.318 17.5901 112.542 18.6817 112.991 19.6203C113.44 20.5589 114.052 21.2832 114.828 21.7934C115.623 22.3035 116.511 22.5585 117.49 22.5585Z" fill="black"/>
<path d="M132.501 24.4255C131.093 24.4255 129.838 24.0786 128.737 23.3849C127.635 22.6912 126.778 21.7321 126.166 20.5079C125.574 19.2632 125.278 17.8757 125.278 16.3454C125.278 14.8355 125.584 13.4786 126.196 12.2747C126.808 11.0505 127.665 10.0915 128.767 9.39771C129.869 8.70396 131.114 8.35709 132.501 8.35709C133.909 8.35709 135.154 8.70396 136.235 9.39771C137.337 10.0915 138.184 11.0505 138.775 12.2747C139.388 13.4786 139.694 14.8457 139.694 16.376C139.694 17.8859 139.388 19.253 138.775 20.4773C138.163 21.7015 137.306 22.6707 136.205 23.3849C135.103 24.0786 133.868 24.4255 132.501 24.4255ZM132.501 22.5585C133.481 22.5585 134.358 22.3035 135.133 21.7934C135.929 21.2832 136.541 20.5691 136.97 19.6509C137.419 18.7123 137.643 17.6207 137.643 16.376C137.643 15.1517 137.419 14.0703 136.97 13.1317C136.541 12.1931 135.929 11.4688 135.133 10.9586C134.358 10.4485 133.481 10.1935 132.501 10.1935C131.501 10.1935 130.604 10.4485 129.808 10.9586C129.032 11.4483 128.42 12.1625 127.971 13.1011C127.543 14.0397 127.329 15.1211 127.329 16.3454C127.329 17.5901 127.553 18.6817 128.002 19.6203C128.451 20.5589 129.063 21.2832 129.838 21.7934C130.634 22.3035 131.522 22.5585 132.501 22.5585Z" fill="black"/>
<path d="M147.175 24.4255C145.89 24.4255 144.716 24.0888 143.655 23.4155C142.615 22.7422 141.788 21.7934 141.176 20.5691C140.585 19.3448 140.289 17.9471 140.289 16.376C140.289 14.8457 140.595 13.4684 141.207 12.2441C141.819 11.0199 142.656 10.0711 143.717 9.39771C144.798 8.70396 146.012 8.35709 147.359 8.35709C148.399 8.35709 149.307 8.57133 150.083 8.99982C150.879 9.40791 151.521 9.96903 152.011 10.6832V1.71547C152.011 1.63385 152.031 1.57264 152.072 1.53183C152.133 1.47062 152.205 1.44001 152.286 1.44001H153.725C153.807 1.44001 153.868 1.47062 153.909 1.53183C153.97 1.57264 154 1.63385 154 1.71547V23.844C154 23.9256 153.97 23.997 153.909 24.0582C153.868 24.0991 153.807 24.1195 153.725 24.1195H152.378C152.297 24.1195 152.225 24.0991 152.164 24.0582C152.123 23.997 152.103 23.9256 152.103 23.844V21.7934C151.531 22.5891 150.838 23.2319 150.022 23.7216C149.205 24.1909 148.257 24.4255 147.175 24.4255ZM147.328 22.5585C148.328 22.5585 149.226 22.2933 150.022 21.7628C150.817 21.2118 151.48 20.4773 152.011 19.5591V14.7539C152.011 13.8561 151.807 13.0705 151.399 12.3972C151.011 11.7034 150.47 11.1627 149.777 10.775C149.083 10.3873 148.308 10.1935 147.451 10.1935C146.451 10.1935 145.563 10.4587 144.788 10.9893C144.033 11.4994 143.431 12.2237 142.982 13.1623C142.554 14.1009 142.339 15.1721 142.339 16.376C142.339 17.5595 142.543 18.6205 142.951 19.5591C143.38 20.4977 143.972 21.2322 144.727 21.7628C145.482 22.2933 146.349 22.5585 147.328 22.5585Z" fill="black"/>
</svg>
