<svg width="206" height="37" viewBox="0 0 206 37" fill="none" xmlns="http://www.w3.org/2000/svg">
<g clip-path="url(#clip0_66_3360)">
<path fill-rule="evenodd" clip-rule="evenodd" d="M8.54336 5.36106H3.38846L4.20984 1.295H9.39307L8.54336 5.36106ZM5.20117 21.7375H0.0462646L2.93528 7.57637H8.09018L5.20117 21.7375Z" fill="#8F0340"/>
<path fill-rule="evenodd" clip-rule="evenodd" d="M7.20014 25.715H12.3115L15.4288 10.4069H19.164L19.7538 7.57523H15.9624L16.1028 6.93038C16.3275 5.7248 16.7207 4.32296 18.6585 4.32296C19.81 4.32296 20.9053 4.43511 21.9725 4.8837L22.5341 1.9118C21.3827 1.49125 20.0908 1.295 18.8551 1.295C14.7548 1.295 11.9183 3.73419 10.8792 7.57523H9.08179L8.5201 10.4069H10.2894L7.17206 25.715H7.20014Z" fill="#8F0340"/>
<path fill-rule="evenodd" clip-rule="evenodd" d="M23.3177 22.015C29.348 22.015 33.5467 16.5554 33.5467 12.0757C33.5467 8.8279 30.447 7.39999 27.4882 7.39999C20.8661 7.39999 17.2592 13.3076 17.2592 17.3393C17.2592 20.6151 20.3871 22.015 23.3177 22.015Z" fill="#8F0340"/>
<path fill-rule="evenodd" clip-rule="evenodd" d="M39.3681 22.015C45.4026 22.015 49.5566 16.5554 49.5566 12.0757C49.5566 8.8279 46.4692 7.39999 43.5501 7.39999C36.9543 7.39999 33.3616 13.3076 33.3616 17.3393C33.3616 20.6151 36.4771 22.015 39.3681 22.015Z" fill="#8F0340"/>
<path fill-rule="evenodd" clip-rule="evenodd" d="M58.1985 21.6789H63.2655L67.3248 1.57249H62.2297L61.0259 7.53722C60.3541 7.42521 59.6822 7.3132 58.9823 7.3132C53.9992 7.3132 49.4641 13.698 49.4641 18.2905C49.4641 20.1668 50.6678 22.015 52.7394 22.015C55.6509 22.015 57.6666 20.5588 58.5064 19.2147H58.8423L58.1985 21.6789Z" fill="#8F0340"/>
<path fill-rule="evenodd" clip-rule="evenodd" d="M42.2059 32.4207C38.4926 35.6326 33.4851 37.295 28.0839 36.9569C21.276 36.5342 16.5218 31.181 15.5934 25.7432H15.9029C17.4501 29.2087 21.1635 32.4207 25.8615 32.9278C30.4469 33.4632 36.0732 31.35 39.1396 28.3635L35.6794 25.715L45.9474 25.7432L43.725 36.7596L42.2059 32.4207Z" fill="#8F0340"/>
<path d="M71.0932 21.7375C70.8308 21.7375 70.7184 21.6064 70.7559 21.3441L74.6907 1.87334C74.7469 1.61111 74.9061 1.48 75.1685 1.48H82.5321C84.7806 1.48 86.4013 1.967 87.3944 2.94101C88.4062 3.91502 88.7341 5.24491 88.3781 6.93069C88.1907 7.88597 87.7504 8.72886 87.0571 9.45937C86.3826 10.1899 85.5207 10.7518 84.4714 11.1452C85.5956 11.501 86.4013 12.1004 86.8885 12.9433C87.3757 13.805 87.4974 14.8258 87.2539 16.0058C87.029 17.1672 86.5325 18.1786 85.7643 19.0402C85.0148 19.9019 84.0405 20.5668 82.8413 21.0351C81.6421 21.5034 80.2556 21.7375 78.6817 21.7375H71.0651H71.0932ZM79.4124 18.1973C80.4804 18.1973 81.333 17.9726 81.97 17.523C82.6071 17.0922 83.0005 16.4928 83.1504 15.7249C83.3191 14.9569 83.1692 14.3575 82.7008 13.9267C82.2323 13.4772 81.4641 13.2524 80.3961 13.2524H76.4332L75.4214 18.1973H79.4124ZM80.902 9.76843C81.7639 9.76843 82.504 9.53429 83.1223 9.06602C83.7219 8.59775 84.0967 8.01709 84.2466 7.32405C84.3777 6.61227 84.2466 6.05035 83.8531 5.63827C83.4409 5.22619 82.7757 5.02014 81.8576 5.02014H78.0914L77.1359 9.76843H80.902Z" fill="#8F0340"/>
<path d="M91.4564 21.1809C90.4831 20.5445 89.8 19.6461 89.4069 18.4855C89.0139 17.3437 88.9671 16.0241 89.2666 14.5266C89.5473 13.1041 90.0994 11.8312 90.923 10.7081C91.7465 9.56631 92.7571 8.66784 93.955 8.0127C95.1528 7.35757 96.4442 7.03 97.8292 7.03C99.1394 7.03 100.225 7.32949 101.086 7.92848C101.947 8.52746 102.536 9.35105 102.855 10.3993C103.191 11.4288 103.229 12.6174 102.967 13.9651C102.911 14.2084 102.808 14.5921 102.658 15.1163C102.602 15.3596 102.443 15.4813 102.181 15.4813H92.9162C92.8227 16.5482 93.0472 17.3812 93.59 17.9801C94.1141 18.5791 94.8627 18.8786 95.836 18.8786C97.0712 18.8786 98.1194 18.3826 98.9803 17.3905C99.1862 17.1846 99.3733 17.1378 99.5418 17.2501L101.619 18.3451C101.844 18.4762 101.9 18.6166 101.788 18.7663C101.058 19.7958 100.122 20.61 98.9803 21.209C97.8199 21.808 96.5098 22.1075 95.0499 22.1075C93.5619 22.1075 92.439 21.7986 91.4564 21.1809ZM99.5137 12.8139C99.6073 11.9342 99.4388 11.2603 99.0084 10.7924C98.5779 10.3244 97.9696 10.0904 97.1835 10.0904C96.3975 10.0904 95.6862 10.3338 95.0499 10.8204C94.3948 11.3071 93.8801 11.9716 93.5058 12.8139H99.5137Z" fill="#8F0340"/>
<path d="M107.326 21.7375H104.295C104.033 21.7375 103.93 21.6068 103.987 21.3453L106.737 7.78639C106.793 7.52492 106.952 7.39418 107.214 7.39418H110.077C110.339 7.39418 110.451 7.52492 110.413 7.78639L110.105 9.29916C110.984 8.51476 111.845 7.93579 112.687 7.56227C113.547 7.20742 114.427 7.03 115.325 7.03C116.934 7.03 118.085 7.54359 118.777 8.57078C119.45 9.61665 119.6 11.0267 119.226 12.8009L117.514 21.3453C117.458 21.6068 117.299 21.7375 117.037 21.7375H114.034C113.772 21.7375 113.66 21.6068 113.697 21.3453L115.353 13.1371C115.521 12.3154 115.465 11.6804 115.184 11.2321C114.904 10.7652 114.399 10.5318 113.669 10.5318C113.07 10.5318 112.425 10.6999 111.732 11.036C111.04 11.3535 110.32 11.8485 109.571 12.5208L107.803 21.3453C107.747 21.6068 107.588 21.7375 107.326 21.7375Z" fill="#8F0340"/>
<path d="M123.661 21.1809C122.688 20.5445 122.005 19.6461 121.612 18.4855C121.219 17.3437 121.172 16.0241 121.471 14.5266C121.752 13.1041 122.304 11.8312 123.128 10.7081C123.933 9.56631 124.943 8.66784 126.16 8.0127C127.358 7.35757 128.649 7.03 130.034 7.03C131.344 7.03 132.43 7.32949 133.291 7.92848C134.152 8.52746 134.741 9.35105 135.059 10.3993C135.396 11.4288 135.434 12.6174 135.172 13.9651C135.116 14.2084 135.013 14.5921 134.863 15.1163C134.807 15.3596 134.648 15.4813 134.386 15.4813H125.121C125.027 16.5482 125.252 17.3812 125.795 17.9801C126.319 18.5791 127.068 18.8786 128.041 18.8786C129.276 18.8786 130.324 18.3826 131.185 17.3905C131.391 17.1846 131.578 17.1378 131.747 17.2501L133.824 18.3451C134.049 18.4762 134.105 18.6166 133.993 18.7663C133.263 19.7958 132.327 20.61 131.185 21.209C130.025 21.808 128.715 22.1075 127.255 22.1075C125.767 22.1075 124.644 21.7986 123.661 21.1809ZM131.719 12.8139C131.812 11.9342 131.644 11.2603 131.213 10.7924C130.783 10.3244 130.174 10.0904 129.388 10.0904C128.602 10.0904 127.891 10.3338 127.255 10.8204C126.6 11.3071 126.085 11.9716 125.711 12.8139H131.719Z" fill="#8F0340"/>
<path d="M140.938 21.7375H137.912C137.651 21.7375 137.548 21.6066 137.604 21.3449L139.733 10.7999H137.24C136.978 10.7999 136.876 10.669 136.932 10.4072L137.464 7.771C137.52 7.50924 137.679 7.37836 137.94 7.37836H140.434L140.518 6.95768C140.835 5.31236 141.676 3.93815 143.039 2.83504C144.402 1.71323 146.382 0.993399 148.978 0.675554L149.426 0.647507C149.538 0.647507 149.613 0.675557 149.65 0.731647C149.688 0.787738 149.697 0.890572 149.678 1.04015L149.426 3.64835L149.398 3.70444C149.361 3.91011 149.221 4.03163 148.978 4.06903C147.82 4.1999 146.924 4.39622 146.289 4.65798C145.635 4.90103 145.168 5.20953 144.888 5.58347C144.608 5.9574 144.412 6.43417 144.3 7.01377L144.216 7.37836H148.138C148.399 7.37836 148.502 7.50924 148.446 7.771L147.913 10.4072C147.857 10.669 147.699 10.7999 147.437 10.7999H143.543L141.414 21.3449C141.358 21.6066 141.199 21.7375 140.938 21.7375Z" fill="#8F0340"/>
<path d="M151.214 21.7356H148.16C147.898 21.7543 147.796 21.6327 147.852 21.3706L150.598 7.77877C150.654 7.51667 150.813 7.38562 151.074 7.38562H154.101C154.362 7.38562 154.465 7.51667 154.409 7.77877L151.691 21.3706C151.635 21.6327 151.476 21.7543 151.214 21.7356ZM157.267 2.63973C157.248 2.75205 157.155 2.85502 156.987 2.94863L151.551 5.64453C151.495 5.68197 151.42 5.70068 151.326 5.70068C151.196 5.70068 151.102 5.64453 151.046 5.5322L150.402 4.01575C150.364 3.92214 150.355 3.84726 150.374 3.7911C150.374 3.71621 150.458 3.61324 150.626 3.48219L155.782 0.0842432C155.857 0.0280788 155.95 0 156.062 0C156.174 0 156.258 0.0561661 156.314 0.168495L157.239 2.41507C157.276 2.48996 157.286 2.56484 157.267 2.63973Z" fill="#8F0340"/>
<path d="M157.798 21.1522C156.845 20.5158 156.181 19.6174 155.807 18.4569C155.452 17.3152 155.424 16.0143 155.723 14.5543C156.003 13.1131 156.564 11.8216 157.406 10.6799C158.247 9.53812 159.275 8.63968 160.49 7.98458C161.705 7.34819 163.014 7.03 164.416 7.03C165.893 7.03 167.033 7.36691 167.837 8.04073C168.66 8.71456 169.211 9.62234 169.492 10.7641C169.492 10.8015 169.492 10.8577 169.492 10.9326C169.454 11.0636 169.342 11.1759 169.155 11.2695L166.435 12.2802C166.323 12.3176 166.258 12.3363 166.239 12.3363C166.127 12.3363 166.033 12.2521 165.959 12.0837C165.603 11.0542 164.856 10.5395 163.715 10.5395C162.724 10.5395 161.846 10.9045 161.079 11.6345C160.313 12.3831 159.808 13.3471 159.565 14.5263C159.322 15.7616 159.434 16.7536 159.901 17.5023C160.369 18.251 161.098 18.6254 162.089 18.6254C163.323 18.6254 164.36 18.0826 165.201 16.997C165.37 16.7723 165.557 16.7068 165.762 16.8004L168.034 17.8392C168.146 17.8954 168.221 17.9515 168.258 18.0077C168.277 18.0826 168.258 18.1668 168.202 18.2604C167.435 19.4208 166.482 20.3567 165.342 21.068C164.183 21.7792 162.865 22.1255 161.388 22.1068C159.873 22.1068 158.78 21.7979 157.798 21.1522Z" fill="#8F0340"/>
<path d="M173.08 21.7375H170.003C169.739 21.7375 169.635 21.6063 169.692 21.344L172.459 7.74153C172.516 7.47922 172.676 7.34806 172.939 7.34806H175.989C176.252 7.34806 176.356 7.47922 176.299 7.74153L173.56 21.344C173.504 21.6063 173.344 21.7375 173.08 21.7375ZM173.334 4.28469C172.977 3.87249 172.864 3.31977 172.996 2.62653C173.127 1.97076 173.457 1.44615 173.984 1.05269C174.511 0.659226 175.132 0.462494 175.847 0.462494C176.563 0.462494 177.09 0.659226 177.429 1.05269C177.786 1.44615 177.899 1.98013 177.768 2.65464C177.636 3.32914 177.306 3.87249 176.779 4.28469C176.271 4.69688 175.659 4.90299 174.944 4.90299C174.229 4.90299 173.692 4.69688 173.334 4.28469Z" fill="#8F0340"/>
<path d="M179.669 21.1809C178.696 20.5445 178.022 19.6461 177.648 18.4855C177.292 17.3437 177.264 16.0334 177.563 14.5547C177.844 13.1321 178.406 11.8499 179.248 10.7081C180.071 9.56631 181.101 8.66784 182.336 8.0127C183.571 7.35757 184.891 7.03 186.294 7.03C187.698 7.03 188.905 7.33885 189.86 7.98462C190.833 8.62104 191.497 9.51016 191.853 10.652C192.227 11.7938 192.265 13.0947 191.965 14.5547C191.684 15.996 191.123 17.2876 190.281 18.4294C189.439 19.5899 188.409 20.4977 187.193 21.1529C185.957 21.7893 184.638 22.1075 183.234 22.1075C181.859 22.1075 180.623 21.7986 179.669 21.1809ZM186.603 17.5309C187.352 16.8009 187.848 15.8182 188.091 14.5828C188.334 13.3661 188.222 12.3834 187.754 11.6347C187.305 10.9047 186.584 10.5397 185.592 10.5397C184.601 10.5397 183.721 10.9047 182.954 11.6347C182.167 12.3647 181.653 13.3287 181.409 14.5266C181.166 15.762 181.278 16.7541 181.746 17.5028C182.233 18.2515 182.972 18.6259 183.964 18.6259C184.947 18.6259 185.845 18.2609 186.603 17.5309Z" fill="#8F0340"/>
<path d="M192.72 19.1032C192.72 18.9909 192.72 18.9254 192.72 18.9067C192.739 18.7757 192.832 18.6634 193 18.5698L195.243 17.4186C195.356 17.3624 195.44 17.3344 195.496 17.3344C195.608 17.3344 195.692 17.4092 195.748 17.559C196.29 18.5698 197.206 19.0751 198.496 19.0751C199.187 19.0751 199.739 18.9535 200.15 18.7101C200.561 18.4668 200.814 18.1392 200.907 17.7274C200.982 17.3156 200.851 16.9881 200.515 16.7447C200.178 16.5201 199.571 16.2955 198.692 16.0709C197.253 15.6965 196.122 15.1724 195.3 14.4986C194.496 13.806 194.225 12.7952 194.486 11.4662C194.655 10.6426 195.038 9.88453 195.636 9.19195C196.253 8.5181 197.029 7.98463 197.963 7.59154C198.898 7.21718 199.916 7.03 201.019 7.03C203.58 7.03 205.215 8.0127 205.926 9.97811C205.944 10.0904 205.954 10.1559 205.954 10.1747C205.916 10.287 205.814 10.3899 205.645 10.4835L203.43 11.5224C203.318 11.5598 203.243 11.5785 203.206 11.5785C203.075 11.5785 202.982 11.513 202.926 11.382C202.496 10.4835 201.683 10.0343 200.486 10.0343C199.907 10.0343 199.412 10.1466 199 10.3712C198.589 10.5958 198.356 10.8766 198.3 11.2135C198.206 11.5879 198.328 11.878 198.664 12.0839C198.982 12.2711 199.543 12.4676 200.346 12.6735C201.318 12.973 202.141 13.2912 202.814 13.6282C203.468 13.9651 203.991 14.4518 204.384 15.0882C204.757 15.7059 204.851 16.5108 204.664 17.5028C204.477 18.4013 204.075 19.1968 203.458 19.8894C202.842 20.6007 202.047 21.1435 201.075 21.5179C200.122 21.911 199.047 22.1075 197.851 22.1075C195.141 22.1075 193.43 21.1061 192.72 19.1032Z" fill="#8F0340"/>
</g>
<defs>
<clipPath id="clip0_66_3360">
<rect width="206" height="37" fill="white"/>
</clipPath>
</defs>
</svg>
